M48
METRIC,LZ,000.000
;FILE_FORMAT=3:3
;TYPE=PLATED
;Layer: PTH_Through_Via
;EasyEDA v6.5.22, 2023-01-13 20:03:49
;4af29382efde4495a0526e0f4e779ae0,8b4b4f1b4b1740689f263a8d45eed83e,10
;Gerber Generator version 0.2
;Holesize 1 = 0.305 mm
T01C0.305
%
G05
G90
T01
X061909Y099450
X057429Y096364
X050497Y102427
X051470Y106850
X055345Y093586
X069656Y104394
X060434Y092889
X046047Y106140
X056084Y106182
X049734Y094459
X061493Y107728
X044110Y100774
X059017Y103123
X047885Y105411
X055704Y107438
X047295Y106702
X049256Y108664
X051713Y103868
X053649Y104831
X047192Y107471
X053086Y109601
X053086Y113665
M30
