G04 Layer: BottomLayer*
G04 EasyEDA v6.5.22, 2023-01-13 20:03:49*
G04 4af29382efde4495a0526e0f4e779ae0,8b4b4f1b4b1740689f263a8d45eed83e,10*
G04 Gerber Generator version 0.2*
G04 Scale: 100 percent, Rotated: No, Reflected: No *
G04 Dimensions in millimeters *
G04 leading zeros omitted , absolute positions ,4 integer and 5 decimal *
%FSLAX45Y45*%
%MOMM*%

%ADD10C,0.2540*%
%ADD11C,0.3000*%
%ADD12R,0.3000X0.7501*%
%ADD13R,1.5748X1.5748*%
%ADD14C,1.5748*%
%ADD15C,0.8080*%
%ADD16C,0.6096*%

%LPD*%
D10*
X5742914Y9636429D02*
G01*
X5882284Y9636429D01*
X6190868Y9945014D01*
X5146979Y10684967D02*
G01*
X5049723Y10587710D01*
X5049723Y10242702D01*
X6870700Y9512300D02*
G01*
X6715404Y9357004D01*
X5536082Y9357004D01*
X5534482Y9358604D01*
X6043371Y9288932D02*
G01*
X6810578Y9288932D01*
X6985330Y9463684D01*
X6985330Y10419714D01*
X6965619Y10439425D01*
X5367096Y9611105D02*
G01*
X5367096Y10376814D01*
X5608447Y10618165D01*
X4973396Y9445853D02*
G01*
X4958130Y9445853D01*
X4337075Y10066909D01*
X4337075Y10346385D01*
X4604715Y10614025D01*
X5367096Y9611105D02*
G01*
X5201843Y9445853D01*
X4973396Y9445853D01*
X5367096Y9611105D02*
G01*
X5580202Y9398000D01*
X6655841Y9398000D01*
X6743700Y9485858D01*
X6743700Y9639300D01*
X6870700Y9766300D01*
X4410963Y10077373D02*
G01*
X5136641Y10803051D01*
X6119063Y10803051D01*
X6149340Y10772775D01*
X6616700Y9512300D02*
G01*
X6249441Y9879558D01*
X6249441Y9978720D01*
X5915812Y10312349D01*
X5901690Y10312349D01*
X5892622Y10421645D02*
G01*
X6225793Y10754817D01*
X6225793Y10794390D01*
X6176340Y10843844D01*
X5091226Y10843844D01*
X4788509Y10541127D01*
X6509994Y9766300D02*
G01*
X6509994Y9792970D01*
X5892596Y10410367D01*
X5892596Y10421620D01*
X5892622Y10421645D01*
X5892622Y10421645D02*
G01*
X5570423Y10743819D01*
X6616700Y9766300D02*
G01*
X6509994Y9766300D01*
X4925618Y10866374D02*
G01*
X4729454Y10670209D01*
X5171338Y10386771D02*
G01*
X5267680Y10483113D01*
X5364937Y10483113D01*
X4902200Y10985500D02*
G01*
X4902200Y10930128D01*
X4719193Y10747120D01*
X4902200Y10985500D02*
G01*
X4902200Y11026520D01*
X4885690Y11043005D01*
X2835706Y11043005D01*
X2833243Y11042904D01*
X2830804Y11042599D01*
X2828391Y11042091D01*
X2826004Y11041405D01*
X2823718Y11040516D01*
X2821482Y11039424D01*
X2819374Y11038179D01*
X2817368Y11036731D01*
X2815463Y11035156D01*
X2813710Y11033404D01*
X2812110Y11031550D01*
X2810662Y11029543D01*
X2809392Y11027435D01*
X2808300Y11025200D01*
X2807385Y11022914D01*
X2806674Y11020552D01*
X2806166Y11018138D01*
X2805836Y11015700D01*
X2805709Y11013236D01*
X2805709Y11013008D01*
X4925618Y10866374D02*
G01*
X5019344Y10960100D01*
X5308600Y10960100D01*
X5308600Y11366500D02*
G01*
X5029200Y11366500D01*
D11*
X5029200Y11379200D02*
G01*
X5029200Y11366500D01*
X5029200Y11299520D01*
X5045709Y11283010D01*
X7095693Y11283010D01*
X2835706Y11043005D02*
G01*
X4885690Y11043005D01*
X4902200Y11026520D01*
X4902200Y10985500D01*
X7095693Y11223015D02*
G01*
X5025694Y11223015D01*
X4965700Y11283010D01*
X2835706Y11283010D01*
X7095693Y11103000D02*
G01*
X4985689Y11103000D01*
X4925695Y11163020D01*
X2835706Y11163020D01*
X7095693Y11163020D02*
G01*
X5005704Y11163020D01*
X4945710Y11223015D01*
X2835706Y11223015D01*
X7095693Y11043005D02*
G01*
X4965700Y11043005D01*
X4905705Y11103000D01*
X2835706Y11103000D01*
X2565704Y11013008D02*
G01*
X2565704Y9053017D01*
X2625699Y11013008D02*
G01*
X2625699Y9053017D01*
X2685694Y11013008D02*
G01*
X2685694Y9053017D01*
X2745714Y11013008D02*
G01*
X2745714Y9053017D01*
X2805709Y11013008D02*
G01*
X2805709Y9053017D01*
X7365695Y11013008D02*
G01*
X7365695Y9053017D01*
X7305700Y11013008D02*
G01*
X7305700Y9053017D01*
X7245705Y11013008D02*
G01*
X7245705Y9053017D01*
X7185685Y11013008D02*
G01*
X7185685Y9053017D01*
X7125690Y11013008D02*
G01*
X7125690Y9053017D01*
X7095693Y8783015D02*
G01*
X2835706Y8783015D01*
X7095693Y8843010D02*
G01*
X2835706Y8843010D01*
X7095693Y8903004D02*
G01*
X2835706Y8903004D01*
X7095693Y8963025D02*
G01*
X2835706Y8963025D01*
X7095693Y9023019D02*
G01*
X2835706Y9023019D01*
D12*
G01*
X5029200Y11366500D03*
D11*
G75*
G01*
X2835707Y11043006D02*
G03*
X2805709Y11013008I0J-29998D01*
G75*
G01*
X2835707Y11103000D02*
G03*
X2745715Y11013008I0J-89992D01*
G75*
G01*
X2835707Y11163021D02*
G03*
X2685694Y11013008I-26J-149987D01*
G75*
G01*
X2835707Y11223015D02*
G03*
X2625700Y11013008I0J-210007D01*
G75*
G01*
X2835707Y11283010D02*
G03*
X2565705Y11013008I0J-270002D01*
G75*
G01*
X7095693Y11043006D02*
G02*
X7125691Y11013008I0J-29998D01*
G75*
G01*
X7095693Y11103000D02*
G02*
X7185685Y11013008I0J-89992D01*
G75*
G01*
X7095693Y11163021D02*
G02*
X7245706Y11013008I26J-149987D01*
G75*
G01*
X7095693Y11223015D02*
G02*
X7305700Y11013008I0J-210007D01*
G75*
G01*
X7095693Y11283010D02*
G02*
X7365695Y11013008I0J-270002D01*
G75*
G01*
X7095693Y9023020D02*
G03*
X7125691Y9053017I0J29997D01*
G75*
G01*
X7095693Y8963025D02*
G03*
X7185685Y9053017I0J89992D01*
G75*
G01*
X7095693Y8903005D02*
G03*
X7245706Y9053017I26J149987D01*
G75*
G01*
X7095693Y8843010D02*
G03*
X7305700Y9053017I0J210007D01*
G75*
G01*
X7095693Y8783015D02*
G03*
X7365695Y9053017I0J270002D01*
G75*
G01*
X2835707Y9023020D02*
G02*
X2805709Y9053017I0J29997D01*
G75*
G01*
X2835707Y8963025D02*
G02*
X2745715Y9053017I0J89992D01*
G75*
G01*
X2835707Y8903005D02*
G02*
X2685694Y9053017I-26J149987D01*
G75*
G01*
X2835707Y8843010D02*
G02*
X2625700Y9053017I0J210007D01*
G75*
G01*
X2835707Y8783015D02*
G02*
X2565705Y9053017I0J270002D01*
D13*
G01*
X6616700Y9766300D03*
D14*
G01*
X6870700Y9766300D03*
G01*
X6616700Y9512300D03*
G01*
X6870700Y9512300D03*
D15*
G01*
X4902200Y10985500D03*
D16*
G01*
X6190868Y9945014D03*
G01*
X5742914Y9636429D03*
G01*
X5049723Y10242702D03*
G01*
X5146979Y10684967D03*
G01*
X5534482Y9358604D03*
G01*
X6965619Y10439425D03*
G01*
X6043371Y9288932D03*
G01*
X4604715Y10614025D03*
G01*
X5608447Y10618165D03*
G01*
X4973396Y9445853D03*
G01*
X6149340Y10772775D03*
G01*
X4410963Y10077373D03*
G01*
X5901690Y10312349D03*
G01*
X4788509Y10541127D03*
G01*
X5570423Y10743819D03*
G01*
X4729454Y10670209D03*
G01*
X4925618Y10866374D03*
G01*
X5171338Y10386771D03*
G01*
X5364937Y10483113D03*
G01*
X4719193Y10747120D03*
G01*
X5308600Y10960100D03*
G01*
X5308600Y11366500D03*
M02*
