G04 Layer: TopPasteMaskLayer*
G04 EasyEDA v6.5.22, 2023-01-13 20:03:49*
G04 4af29382efde4495a0526e0f4e779ae0,8b4b4f1b4b1740689f263a8d45eed83e,10*
G04 Gerber Generator version 0.2*
G04 Scale: 100 percent, Rotated: No, Reflected: No *
G04 Dimensions in millimeters *
G04 leading zeros omitted , absolute positions ,4 integer and 5 decimal *
%FSLAX45Y45*%
%MOMM*%

%ADD10R,0.8000X0.9000*%
%ADD11R,0.9000X0.8000*%
%ADD12R,1.7501X0.8001*%
%ADD13R,0.8999X1.0000*%
%ADD14R,1.2500X0.7000*%
%ADD15R,1.8030X0.4064*%
%ADD16R,1.8034X0.4064*%
%ADD17R,0.3000X0.3000*%
%ADD18R,0.3000X0.5000*%
%ADD19R,0.5000X0.3000*%

%LPD*%
G36*
X5602122Y10103408D02*
G01*
X5597093Y10098379D01*
X5597093Y10075621D01*
X5634075Y10075621D01*
X5634075Y10042601D01*
X5597093Y10042601D01*
X5597093Y10018420D01*
X5602122Y10013391D01*
X5682081Y10013391D01*
X5687110Y10018420D01*
X5687110Y10098379D01*
X5682081Y10103408D01*
G37*
G36*
X5443118Y10103408D02*
G01*
X5438089Y10098379D01*
X5438089Y10018420D01*
X5443118Y10013391D01*
X5522112Y10013391D01*
X5527090Y10018420D01*
X5527090Y10042601D01*
X5489092Y10042601D01*
X5489092Y10075621D01*
X5527090Y10075621D01*
X5527090Y10098379D01*
X5522112Y10103408D01*
G37*
G36*
X6135522Y10103408D02*
G01*
X6130493Y10098379D01*
X6130493Y10075621D01*
X6167475Y10075621D01*
X6167475Y10042601D01*
X6130493Y10042601D01*
X6130493Y10018420D01*
X6135522Y10013391D01*
X6215481Y10013391D01*
X6220510Y10018420D01*
X6220510Y10098379D01*
X6215481Y10103408D01*
G37*
G36*
X5976518Y10103408D02*
G01*
X5971489Y10098379D01*
X5971489Y10018420D01*
X5976518Y10013391D01*
X6055512Y10013391D01*
X6060490Y10018420D01*
X6060490Y10042601D01*
X6022492Y10042601D01*
X6022492Y10075621D01*
X6060490Y10075621D01*
X6060490Y10098379D01*
X6055512Y10103408D01*
G37*
G36*
X6516522Y10598708D02*
G01*
X6511493Y10593679D01*
X6511493Y10570921D01*
X6548475Y10570921D01*
X6548475Y10537901D01*
X6511493Y10537901D01*
X6511493Y10513720D01*
X6516522Y10508691D01*
X6596481Y10508691D01*
X6601510Y10513720D01*
X6601510Y10593679D01*
X6596481Y10598708D01*
G37*
G36*
X6357518Y10598708D02*
G01*
X6352489Y10593679D01*
X6352489Y10513720D01*
X6357518Y10508691D01*
X6436512Y10508691D01*
X6441490Y10513720D01*
X6441490Y10537901D01*
X6403492Y10537901D01*
X6403492Y10570921D01*
X6441490Y10570921D01*
X6441490Y10593679D01*
X6436512Y10598708D01*
G37*
G36*
X6516522Y10814608D02*
G01*
X6511493Y10809579D01*
X6511493Y10786821D01*
X6548475Y10786821D01*
X6548475Y10753801D01*
X6511493Y10753801D01*
X6511493Y10729620D01*
X6516522Y10724591D01*
X6596481Y10724591D01*
X6601510Y10729620D01*
X6601510Y10809579D01*
X6596481Y10814608D01*
G37*
G36*
X6357518Y10814608D02*
G01*
X6352489Y10809579D01*
X6352489Y10729620D01*
X6357518Y10724591D01*
X6436512Y10724591D01*
X6441490Y10729620D01*
X6441490Y10753801D01*
X6403492Y10753801D01*
X6403492Y10786821D01*
X6441490Y10786821D01*
X6441490Y10809579D01*
X6436512Y10814608D01*
G37*
G36*
X6516522Y10370108D02*
G01*
X6511493Y10365079D01*
X6511493Y10342321D01*
X6548475Y10342321D01*
X6548475Y10309301D01*
X6511493Y10309301D01*
X6511493Y10285120D01*
X6516522Y10280091D01*
X6596481Y10280091D01*
X6601510Y10285120D01*
X6601510Y10365079D01*
X6596481Y10370108D01*
G37*
G36*
X6357518Y10370108D02*
G01*
X6352489Y10365079D01*
X6352489Y10285120D01*
X6357518Y10280091D01*
X6436512Y10280091D01*
X6441490Y10285120D01*
X6441490Y10309301D01*
X6403492Y10309301D01*
X6403492Y10342321D01*
X6441490Y10342321D01*
X6441490Y10365079D01*
X6436512Y10370108D01*
G37*
G36*
X4498187Y9393377D02*
G01*
X4494174Y9389364D01*
X4494174Y9339275D01*
X4498187Y9335312D01*
X4544212Y9335312D01*
X4548225Y9339275D01*
X4548225Y9389364D01*
X4544212Y9393377D01*
G37*
G36*
X4498187Y9308287D02*
G01*
X4494174Y9304324D01*
X4494174Y9254236D01*
X4498187Y9250222D01*
X4544212Y9250222D01*
X4548225Y9254236D01*
X4548225Y9304324D01*
X4544212Y9308287D01*
G37*
G36*
X4726787Y9393377D02*
G01*
X4722774Y9389364D01*
X4722774Y9339275D01*
X4726787Y9335312D01*
X4772812Y9335312D01*
X4776825Y9339275D01*
X4776825Y9389364D01*
X4772812Y9393377D01*
G37*
G36*
X4726787Y9308287D02*
G01*
X4722774Y9304324D01*
X4722774Y9254236D01*
X4726787Y9250222D01*
X4772812Y9250222D01*
X4776825Y9254236D01*
X4776825Y9304324D01*
X4772812Y9308287D01*
G37*
G36*
X5133187Y9393377D02*
G01*
X5129174Y9389364D01*
X5129174Y9339275D01*
X5133187Y9335312D01*
X5179212Y9335312D01*
X5183225Y9339275D01*
X5183225Y9389364D01*
X5179212Y9393377D01*
G37*
G36*
X5133187Y9308287D02*
G01*
X5129174Y9304324D01*
X5129174Y9254236D01*
X5133187Y9250222D01*
X5179212Y9250222D01*
X5183225Y9254236D01*
X5183225Y9304324D01*
X5179212Y9308287D01*
G37*
G36*
X4942687Y9308287D02*
G01*
X4938674Y9304324D01*
X4938674Y9254236D01*
X4942687Y9250222D01*
X4988712Y9250222D01*
X4992725Y9254236D01*
X4992725Y9304324D01*
X4988712Y9308287D01*
G37*
G36*
X4942687Y9393377D02*
G01*
X4938674Y9389364D01*
X4938674Y9339275D01*
X4942687Y9335312D01*
X4988712Y9335312D01*
X4992725Y9339275D01*
X4992725Y9389364D01*
X4988712Y9393377D01*
G37*
D10*
G01*
X5632602Y9829800D03*
G01*
X5492597Y9829800D03*
D11*
G01*
X4673600Y10242702D03*
G01*
X4673600Y10102697D03*
D10*
G01*
X6166002Y9829800D03*
G01*
X6025997Y9829800D03*
D11*
G01*
X4876800Y10242702D03*
G01*
X4876800Y10102697D03*
D12*
G01*
X3210306Y10439400D03*
G01*
X3210306Y10185400D03*
G01*
X3210306Y9931400D03*
G01*
X3210306Y9677400D03*
G01*
X4130293Y9677400D03*
G01*
X4130293Y9931400D03*
G01*
X4130293Y10185400D03*
G01*
X4130293Y10439400D03*
D13*
G01*
X6981088Y10769600D03*
G01*
X6811086Y10769600D03*
G01*
X6981088Y10553700D03*
G01*
X6811086Y10553700D03*
G01*
X6981088Y10325100D03*
G01*
X6811086Y10325100D03*
D14*
G01*
X5412231Y9410700D03*
G01*
X5662168Y9505695D03*
G01*
X5662168Y9315704D03*
G01*
X5945631Y9398000D03*
G01*
X6195568Y9492995D03*
G01*
X6195568Y9303004D03*
D15*
G01*
X4461687Y10702289D03*
D16*
G01*
X4461713Y10636250D03*
G01*
X4461713Y10572750D03*
G01*
X4461713Y10506710D03*
G01*
X4961712Y10506710D03*
G01*
X4961712Y10572750D03*
G01*
X4961712Y10636250D03*
G01*
X4961712Y10702289D03*
D17*
G01*
X5321300Y10604500D03*
D18*
G01*
X5321300Y10664494D03*
D19*
G01*
X5386298Y10654487D03*
G01*
X5386298Y10604500D03*
G01*
X5386298Y10554487D03*
D18*
G01*
X5321300Y10544505D03*
D19*
G01*
X5256301Y10554512D03*
G01*
X5256301Y10604500D03*
G01*
X5256301Y10654487D03*
M02*
