G04 Layer: BottomSilkscreenLayer*
G04 EasyEDA v6.5.22, 2023-01-13 20:03:49*
G04 4af29382efde4495a0526e0f4e779ae0,8b4b4f1b4b1740689f263a8d45eed83e,10*
G04 Gerber Generator version 0.2*
G04 Scale: 100 percent, Rotated: No, Reflected: No *
G04 Dimensions in millimeters *
G04 leading zeros omitted , absolute positions ,4 integer and 5 decimal *
%FSLAX45Y45*%
%MOMM*%

%ADD10C,0.4030*%
%ADD11C,0.1030*%

%LPD*%
G36*
X3540302Y10799673D02*
G01*
X3443274Y10796930D01*
X3404971Y10788853D01*
X3392932Y10785957D01*
X3380587Y10782604D01*
X3367989Y10778794D01*
X3355136Y10774629D01*
X3329127Y10765180D01*
X3316020Y10759948D01*
X3303015Y10754461D01*
X3290163Y10748721D01*
X3277463Y10742726D01*
X3265068Y10736580D01*
X3361283Y10736478D01*
X3361283Y10745673D01*
X3382670Y10751972D01*
X3387953Y10753140D01*
X3390646Y10753191D01*
X3391103Y10752582D01*
X3411474Y10752582D01*
X3411474Y10759389D01*
X3446983Y10765536D01*
X3454349Y10766501D01*
X3457600Y10766094D01*
X3459429Y10764520D01*
X3461461Y10761675D01*
X3461410Y10759541D01*
X3459429Y10758474D01*
X3453180Y10759084D01*
X3450386Y10758932D01*
X3447796Y10758322D01*
X3445611Y10757306D01*
X3441293Y10754512D01*
X3448608Y10709402D01*
X3449401Y10703610D01*
X3477666Y10703610D01*
X3479647Y10710976D01*
X3480460Y10715904D01*
X3481070Y10723829D01*
X3481527Y10733633D01*
X3481730Y10744250D01*
X3481730Y10770057D01*
X3491788Y10770057D01*
X3491788Y10713161D01*
X3506876Y10707522D01*
X3516985Y10712907D01*
X3519678Y10714990D01*
X3521760Y10717428D01*
X3523234Y10720476D01*
X3524199Y10724438D01*
X3524808Y10729569D01*
X3525215Y10744250D01*
X3525265Y10766755D01*
X3565398Y10766755D01*
X3572713Y10765891D01*
X3611829Y10759389D01*
X3615334Y10750296D01*
X3596335Y10754055D01*
X3594252Y10750753D01*
X3593134Y10747451D01*
X3589934Y10732160D01*
X3584295Y10696702D01*
X3580079Y10696702D01*
X3575964Y10697718D01*
X3574186Y10701528D01*
X3574694Y10709148D01*
X3580688Y10738104D01*
X3581704Y10744758D01*
X3582111Y10749229D01*
X3582162Y10756747D01*
X3565398Y10756747D01*
X3565398Y10766755D01*
X3539337Y10766755D01*
X3537305Y10761472D01*
X3536543Y10757712D01*
X3535883Y10751464D01*
X3535273Y10734802D01*
X3535273Y10713415D01*
X3521252Y10699394D01*
X3503523Y10702340D01*
X3497579Y10703052D01*
X3487267Y10703610D01*
X3449401Y10703610D01*
X3449980Y10698632D01*
X3438245Y10696244D01*
X3438245Y10705388D01*
X3437940Y10710570D01*
X3437178Y10717987D01*
X3434587Y10735462D01*
X3430930Y10756442D01*
X3411474Y10752582D01*
X3391103Y10752582D01*
X3391408Y10752175D01*
X3393440Y10742980D01*
X3403041Y10706862D01*
X3406190Y10696448D01*
X3408163Y10691723D01*
X3617264Y10691723D01*
X3637584Y10751769D01*
X3647744Y10749838D01*
X3634232Y10707471D01*
X3629355Y10692993D01*
X3627729Y10689336D01*
X3626408Y10687507D01*
X3625087Y10687100D01*
X3623614Y10687710D01*
X3617264Y10691723D01*
X3408163Y10691723D01*
X3408375Y10691215D01*
X3371392Y10680954D01*
X3364534Y10689183D01*
X3378250Y10691012D01*
X3388207Y10692638D01*
X3393135Y10694873D01*
X3394100Y10698835D01*
X3392220Y10705693D01*
X3389020Y10715040D01*
X3371342Y10713821D01*
X3371342Y10717022D01*
X3371951Y10718495D01*
X3373678Y10720171D01*
X3376168Y10721797D01*
X3379266Y10723219D01*
X3387191Y10726267D01*
X3383940Y10743387D01*
X3379063Y10743387D01*
X3376676Y10743133D01*
X3370630Y10741304D01*
X3361283Y10736478D01*
X3264871Y10736478D01*
X3252978Y10730230D01*
X3241294Y10723778D01*
X3230067Y10717174D01*
X3219348Y10710519D01*
X3194644Y10694060D01*
X3260902Y10694060D01*
X3283661Y10716717D01*
X3307232Y10716717D01*
X3327349Y10699851D01*
X3331616Y10680344D01*
X3320592Y10657230D01*
X3309467Y10651947D01*
X3304641Y10649915D01*
X3299764Y10648238D01*
X3295396Y10647121D01*
X3292094Y10646714D01*
X3285896Y10648137D01*
X3278479Y10651896D01*
X3271164Y10657179D01*
X3265170Y10663224D01*
X3261106Y10668355D01*
X3260902Y10694060D01*
X3194644Y10694060D01*
X3189376Y10690555D01*
X3155719Y10657230D01*
X3202381Y10657230D01*
X3218738Y10670641D01*
X3226003Y10675823D01*
X3227679Y10676636D01*
X3229305Y10675416D01*
X3232353Y10672013D01*
X3236315Y10667034D01*
X3245764Y10653979D01*
X3256279Y10640568D01*
X3260496Y10635691D01*
X3269132Y10626394D01*
X3259226Y10620146D01*
X3247745Y10635284D01*
X3240735Y10644936D01*
X3233775Y10640568D01*
X3228136Y10638129D01*
X3224733Y10638485D01*
X3224530Y10640923D01*
X3228238Y10644835D01*
X3232200Y10648391D01*
X3233674Y10651794D01*
X3232759Y10655757D01*
X3229457Y10660888D01*
X3224987Y10666730D01*
X3207004Y10652607D01*
X3202381Y10657230D01*
X3155719Y10657230D01*
X3139033Y10639348D01*
X3130346Y10629341D01*
X3121812Y10619028D01*
X3113379Y10608411D01*
X3105150Y10597591D01*
X3099064Y10589158D01*
X3137204Y10589158D01*
X3138525Y10591546D01*
X3141980Y10596118D01*
X3147060Y10602264D01*
X3169107Y10627004D01*
X3173933Y10622178D01*
X3160318Y10607700D01*
X3195320Y10578490D01*
X3199384Y10574629D01*
X3201974Y10571683D01*
X3203244Y10569448D01*
X3203295Y10567720D01*
X3202330Y10566247D01*
X3196894Y10562691D01*
X3156915Y10597337D01*
X3152038Y10595457D01*
X3150108Y10594441D01*
X3148533Y10593070D01*
X3147466Y10591596D01*
X3146704Y10588802D01*
X3145637Y10587685D01*
X3144012Y10586923D01*
X3142081Y10586669D01*
X3140151Y10586872D01*
X3138576Y10587431D01*
X3137560Y10588193D01*
X3137204Y10589158D01*
X3099064Y10589158D01*
X3093212Y10580928D01*
X3081832Y10563961D01*
X3069032Y10543387D01*
X3106928Y10543387D01*
X3107537Y10545622D01*
X3109163Y10549178D01*
X3111550Y10553547D01*
X3117545Y10562793D01*
X3120288Y10566450D01*
X3122422Y10568889D01*
X3123692Y10569702D01*
X3125825Y10568889D01*
X3134004Y10564012D01*
X3145332Y10556341D01*
X3157423Y10547604D01*
X3167735Y10539628D01*
X3173933Y10534091D01*
X3174644Y10532872D01*
X3173628Y10530586D01*
X3168599Y10522000D01*
X3156559Y10503763D01*
X3146704Y10507522D01*
X3155238Y10516412D01*
X3161385Y10523575D01*
X3163265Y10528655D01*
X3160826Y10532973D01*
X3154019Y10537647D01*
X3144215Y10543438D01*
X3139490Y10536732D01*
X3135579Y10532618D01*
X3132886Y10532160D01*
X3132277Y10534853D01*
X3134563Y10540085D01*
X3138322Y10546130D01*
X3133953Y10551414D01*
X3129381Y10555427D01*
X3125063Y10556290D01*
X3120948Y10553903D01*
X3113481Y10543133D01*
X3110280Y10540339D01*
X3107893Y10540339D01*
X3106928Y10543387D01*
X3069032Y10543387D01*
X3057855Y10523829D01*
X3051759Y10512348D01*
X3046018Y10500969D01*
X3040735Y10489692D01*
X3033062Y10471810D01*
X3070148Y10471810D01*
X3071723Y10479074D01*
X3075787Y10487558D01*
X3081426Y10495534D01*
X3087573Y10501426D01*
X3095040Y10506659D01*
X3116884Y10506659D01*
X3133618Y10491724D01*
X3404158Y10491724D01*
X3408578Y10515092D01*
X3411220Y10525353D01*
X3414572Y10536580D01*
X3418332Y10547553D01*
X3422853Y10558627D01*
X3426104Y10565536D01*
X3433978Y10580522D01*
X3442563Y10595457D01*
X3450590Y10608259D01*
X3454044Y10613186D01*
X3456889Y10616844D01*
X3459022Y10618927D01*
X3460242Y10619232D01*
X3460546Y10617200D01*
X3460242Y10612882D01*
X3459327Y10606836D01*
X3454095Y10581843D01*
X3458464Y10525099D01*
X3506215Y10391343D01*
X3510381Y10380624D01*
X3511905Y10377170D01*
X3513124Y10374934D01*
X3514039Y10373969D01*
X3514648Y10374223D01*
X3514953Y10375696D01*
X3514801Y10382351D01*
X3511804Y10410037D01*
X3508349Y10438282D01*
X3480155Y10531652D01*
X3480104Y10615015D01*
X3489451Y10642295D01*
X3493465Y10653166D01*
X3497427Y10662615D01*
X3500831Y10669625D01*
X3503320Y10673181D01*
X3507740Y10676890D01*
X3508184Y10673384D01*
X3660698Y10673384D01*
X3661156Y10675213D01*
X3666642Y10687608D01*
X3675481Y10706049D01*
X3679139Y10714482D01*
X3681628Y10720984D01*
X3682542Y10724692D01*
X3682542Y10729518D01*
X3666032Y10735056D01*
X3670808Y10742422D01*
X3712667Y10723727D01*
X3712667Y10716006D01*
X3694277Y10723372D01*
X3670960Y10669930D01*
X3664559Y10672318D01*
X3660698Y10673384D01*
X3508184Y10673384D01*
X3509311Y10664494D01*
X3702913Y10664494D01*
X3704386Y10669473D01*
X3708501Y10674299D01*
X3714394Y10679633D01*
X3747820Y10681716D01*
X3749801Y10695787D01*
X3729482Y10704169D01*
X3731310Y10707116D01*
X3733393Y10709351D01*
X3736390Y10709656D01*
X3741165Y10707725D01*
X3759504Y10696803D01*
X3759504Y10676940D01*
X3753053Y10673486D01*
X3749598Y10672165D01*
X3745026Y10671048D01*
X3739946Y10670336D01*
X3727399Y10669727D01*
X3721404Y10668812D01*
X3716934Y10667288D01*
X3714038Y10665206D01*
X3712768Y10662666D01*
X3713073Y10659618D01*
X3715105Y10656112D01*
X3718763Y10652201D01*
X3724910Y10646714D01*
X3744214Y10646714D01*
X3734054Y10636605D01*
X3713124Y10643870D01*
X3707841Y10651845D01*
X3704082Y10658754D01*
X3702913Y10664494D01*
X3509311Y10664494D01*
X3512210Y10641685D01*
X3527348Y10611764D01*
X3551783Y10565282D01*
X3560013Y10549128D01*
X3567176Y10534345D01*
X3572408Y10522661D01*
X3576523Y10512552D01*
X3578707Y10508132D01*
X3580384Y10505744D01*
X3581298Y10505846D01*
X3580790Y10509554D01*
X3578555Y10517022D01*
X3574897Y10527182D01*
X3551732Y10583570D01*
X3541979Y10607954D01*
X3542284Y10628376D01*
X3548956Y10621010D01*
X3750716Y10621010D01*
X3751579Y10623702D01*
X3755390Y10629595D01*
X3761638Y10637774D01*
X3777030Y10655960D01*
X3787190Y10667187D01*
X3790442Y10670336D01*
X3792829Y10672064D01*
X3794607Y10672673D01*
X3796029Y10672318D01*
X3799586Y10669016D01*
X3768140Y10635488D01*
X3771442Y10634421D01*
X3774744Y10634319D01*
X3781348Y10634929D01*
X3800449Y10637672D01*
X3826205Y10642092D01*
X3835755Y10636758D01*
X3818026Y10618266D01*
X3805936Y10604804D01*
X3790391Y10586059D01*
X3785565Y10593882D01*
X3804716Y10614812D01*
X3811524Y10622686D01*
X3814826Y10627106D01*
X3815283Y10628884D01*
X3812489Y10628884D01*
X3795572Y10626496D01*
X3771442Y10622432D01*
X3761232Y10621162D01*
X3753967Y10620603D01*
X3750716Y10621010D01*
X3548956Y10621010D01*
X3563112Y10605312D01*
X3571646Y10595051D01*
X3580231Y10584078D01*
X3591670Y10568330D01*
X3810457Y10568330D01*
X3859479Y10613542D01*
X3865829Y10602264D01*
X3850182Y10589615D01*
X3837330Y10578236D01*
X3817518Y10559694D01*
X3810457Y10568330D01*
X3591670Y10568330D01*
X3596589Y10561167D01*
X3603853Y10549940D01*
X3610254Y10539323D01*
X3617397Y10525709D01*
X3842918Y10525709D01*
X3875430Y10529011D01*
X3894226Y10531246D01*
X3913327Y10534142D01*
X3917238Y10523982D01*
X3874973Y10470337D01*
X3868674Y10476534D01*
X3876040Y10484307D01*
X3880865Y10490454D01*
X3882847Y10496143D01*
X3881983Y10502290D01*
X3878478Y10509961D01*
X3873855Y10518292D01*
X3845458Y10518292D01*
X3842918Y10525709D01*
X3617397Y10525709D01*
X3625951Y10507065D01*
X3627018Y10468254D01*
X3618665Y10451134D01*
X3880358Y10451134D01*
X3882085Y10452811D01*
X3889959Y10454182D01*
X3896817Y10456367D01*
X3905504Y10459516D01*
X3930599Y10469829D01*
X3939184Y10472623D01*
X3942791Y10472216D01*
X3943553Y10469016D01*
X3943553Y10464749D01*
X3885336Y10440009D01*
X3882745Y10444175D01*
X3880561Y10448290D01*
X3880358Y10451134D01*
X3618665Y10451134D01*
X3615588Y10445546D01*
X3610762Y10438282D01*
X3604971Y10430865D01*
X3598164Y10423245D01*
X3590394Y10415422D01*
X3893210Y10415422D01*
X3931310Y10423652D01*
X3948074Y10427614D01*
X3951833Y10428732D01*
X3956100Y10430306D01*
X3960114Y10419943D01*
X3952646Y10419892D01*
X3948480Y10419486D01*
X3935577Y10417149D01*
X3911752Y10411002D01*
X3938981Y10397337D01*
X3949649Y10391648D01*
X3958691Y10386314D01*
X3965041Y10381945D01*
X3967886Y10379100D01*
X3969613Y10374630D01*
X3903421Y10361269D01*
X3903421Y10368686D01*
X3933596Y10374833D01*
X3940505Y10376662D01*
X3945178Y10378287D01*
X3946906Y10379456D01*
X3944874Y10381335D01*
X3939336Y10384891D01*
X3931158Y10389565D01*
X3911041Y10400385D01*
X3902608Y10405414D01*
X3896715Y10409428D01*
X3894277Y10411866D01*
X3893210Y10415422D01*
X3590394Y10415422D01*
X3575913Y10402468D01*
X3564788Y10393273D01*
X3542944Y10375900D01*
X3525824Y10361574D01*
X3512870Y10349585D01*
X3488842Y10363860D01*
X3463747Y10378236D01*
X3456482Y10382656D01*
X3448659Y10387939D01*
X3441242Y10393375D01*
X3435197Y10398404D01*
X3422954Y10409428D01*
X3406597Y10441635D01*
X3404158Y10491724D01*
X3133618Y10491724D01*
X3138627Y10487253D01*
X3137966Y10461345D01*
X3126841Y10439958D01*
X3117088Y10439958D01*
X3130346Y10461599D01*
X3130346Y10482834D01*
X3112719Y10496651D01*
X3104591Y10496651D01*
X3100933Y10496397D01*
X3097022Y10495686D01*
X3093313Y10494619D01*
X3090265Y10493349D01*
X3084068Y10489996D01*
X3080156Y10478312D01*
X3076956Y10470946D01*
X3073654Y10467086D01*
X3071164Y10467187D01*
X3070148Y10471810D01*
X3033062Y10471810D01*
X3029356Y10462260D01*
X3025648Y10451693D01*
X3022549Y10441482D01*
X3019247Y10428732D01*
X3015792Y10413898D01*
X3012643Y10398709D01*
X3009520Y10381945D01*
X3043885Y10381945D01*
X3043885Y10384739D01*
X3046120Y10389057D01*
X3048711Y10393172D01*
X3070047Y10387076D01*
X3071622Y10389616D01*
X3072485Y10391698D01*
X3074974Y10400487D01*
X3079445Y10419994D01*
X3066846Y10422737D01*
X3059938Y10424464D01*
X3053537Y10426344D01*
X3055467Y10431475D01*
X3056432Y10433456D01*
X3057499Y10434980D01*
X3058617Y10435945D01*
X3059633Y10436199D01*
X3120593Y10421975D01*
X3118408Y10411612D01*
X3110788Y10412526D01*
X3102610Y10414050D01*
X3087725Y10417251D01*
X3082493Y10401757D01*
X3081274Y10397083D01*
X3080461Y10392918D01*
X3080156Y10389819D01*
X3080156Y10384028D01*
X3091230Y10381234D01*
X3099257Y10380167D01*
X3107486Y10379760D01*
X3109722Y10378846D01*
X3109874Y10376509D01*
X3106521Y10367365D01*
X3072536Y10376001D01*
X3063290Y10377982D01*
X3055721Y10379354D01*
X3046171Y10380370D01*
X3043885Y10381945D01*
X3009520Y10381945D01*
X3005226Y10358272D01*
X3005226Y10346588D01*
X3682542Y10346588D01*
X3682542Y10343337D01*
X3682237Y10341813D01*
X3681272Y10340238D01*
X3679596Y10338562D01*
X3677158Y10336784D01*
X3673957Y10334853D01*
X3664965Y10330484D01*
X3652316Y10325252D01*
X3635501Y10319054D01*
X3598316Y10305796D01*
X3583889Y10300309D01*
X3570616Y10294874D01*
X3906723Y10294874D01*
X3906723Y10308234D01*
X3961129Y10306050D01*
X3967683Y10312552D01*
X3963212Y10326573D01*
X3947109Y10326573D01*
X3938574Y10310317D01*
X3906774Y10333329D01*
X3906875Y10344556D01*
X3908298Y10345623D01*
X3912666Y10342524D01*
X3921556Y10334752D01*
X3930700Y10327132D01*
X3936288Y10323931D01*
X3939590Y10324896D01*
X3941826Y10329722D01*
X3944772Y10334548D01*
X3949496Y10337749D01*
X3955237Y10339070D01*
X3961231Y10338054D01*
X3965194Y10335768D01*
X3967937Y10331653D01*
X3970020Y10324236D01*
X3972102Y10312196D01*
X3974388Y10297007D01*
X3906723Y10294874D01*
X3570616Y10294874D01*
X3562350Y10291114D01*
X3553672Y10286542D01*
X3689248Y10286542D01*
X3689400Y10256418D01*
X3689590Y10252710D01*
X3709314Y10252710D01*
X3709314Y10271709D01*
X3719728Y10286542D01*
X3738981Y10286542D01*
X3749497Y10276078D01*
X3749497Y10268661D01*
X3748379Y10262108D01*
X3745128Y10257231D01*
X3739946Y10254234D01*
X3732885Y10253268D01*
X3724351Y10253319D01*
X3741115Y10261701D01*
X3743096Y10275468D01*
X3732834Y10283952D01*
X3727754Y10282021D01*
X3725468Y10280599D01*
X3723030Y10278211D01*
X3720744Y10275163D01*
X3718864Y10271810D01*
X3715054Y10263530D01*
X3721222Y10248696D01*
X3762857Y10248696D01*
X3762857Y10256215D01*
X3773322Y10262057D01*
X3768090Y10266375D01*
X3764381Y10270083D01*
X3763162Y10273436D01*
X3764381Y10276992D01*
X3768140Y10281310D01*
X3773373Y10286542D01*
X3829812Y10286542D01*
X3829964Y10256418D01*
X3830370Y10248493D01*
X3831031Y10242194D01*
X3831844Y10238486D01*
X3832312Y10237266D01*
X3899662Y10237266D01*
X3903268Y10247579D01*
X3905250Y10252202D01*
X3907942Y10257129D01*
X3911041Y10261803D01*
X3914089Y10265562D01*
X3921302Y10273233D01*
X3950766Y10273233D01*
X3970324Y10253726D01*
X3970324Y10227056D01*
X3953408Y10206990D01*
X3934206Y10202824D01*
X3909872Y10212933D01*
X3899662Y10237266D01*
X3832312Y10237266D01*
X3833876Y10233202D01*
X3823106Y10233202D01*
X3823106Y10286542D01*
X3773373Y10286542D01*
X3786174Y10286034D01*
X3789883Y10285628D01*
X3795471Y10284358D01*
X3799687Y10282682D01*
X3799687Y10275265D01*
X3799382Y10272115D01*
X3798620Y10269016D01*
X3797554Y10266324D01*
X3796182Y10264394D01*
X3792677Y10260939D01*
X3797858Y10256672D01*
X3801618Y10252405D01*
X3802735Y10248087D01*
X3801160Y10243566D01*
X3796893Y10238740D01*
X3790797Y10233202D01*
X3770884Y10233202D01*
X3766870Y10237216D01*
X3765296Y10239349D01*
X3764026Y10242245D01*
X3763162Y10245496D01*
X3762857Y10248696D01*
X3721222Y10248696D01*
X3723081Y10244226D01*
X3744468Y10233609D01*
X3728872Y10233202D01*
X3709314Y10252710D01*
X3689590Y10252710D01*
X3689807Y10248493D01*
X3690467Y10242194D01*
X3691280Y10238486D01*
X3693312Y10233202D01*
X3682542Y10233202D01*
X3682542Y10286542D01*
X3553672Y10286542D01*
X3548379Y10283240D01*
X3543350Y10279380D01*
X3531971Y10268610D01*
X3531971Y10226548D01*
X3488436Y10226548D01*
X3488436Y10242702D01*
X3488182Y10249814D01*
X3487369Y10257129D01*
X3486251Y10263886D01*
X3484829Y10269169D01*
X3481273Y10279430D01*
X3472383Y10285069D01*
X3465931Y10287965D01*
X3442462Y10297414D01*
X3409594Y10309910D01*
X3334512Y10337596D01*
X3334512Y10346588D01*
X3005226Y10346588D01*
X3005218Y10286542D01*
X3036671Y10286542D01*
X3036671Y10296753D01*
X3080156Y10292283D01*
X3080156Y10294874D01*
X3078530Y10297312D01*
X3074162Y10302138D01*
X3067659Y10308691D01*
X3039211Y10334955D01*
X3041700Y10344912D01*
X3103575Y10342981D01*
X3103575Y10331399D01*
X3072130Y10334142D01*
X3059176Y10334447D01*
X3056737Y10334091D01*
X3056890Y10332872D01*
X3058515Y10330586D01*
X3061360Y10327589D01*
X3084017Y10307777D01*
X3092348Y10300157D01*
X3097885Y10294518D01*
X3104438Y10286542D01*
X3005218Y10286542D01*
X3005175Y10234879D01*
X3007199Y10224008D01*
X3039414Y10224008D01*
X3041497Y10235031D01*
X3042767Y10239908D01*
X3044698Y10244988D01*
X3047034Y10249662D01*
X3049524Y10253421D01*
X3055518Y10260736D01*
X3088995Y10263936D01*
X3106928Y10242702D01*
X3106928Y10212882D01*
X3098850Y10204856D01*
X3095040Y10201554D01*
X3090519Y10198506D01*
X3085896Y10196068D01*
X3081782Y10194544D01*
X3072790Y10192308D01*
X3050336Y10202926D01*
X3039414Y10224008D01*
X3007199Y10224008D01*
X3012033Y10198049D01*
X3017672Y10172090D01*
X3020521Y10160711D01*
X3057296Y10160711D01*
X3057499Y10161320D01*
X3087014Y10170617D01*
X3102660Y10176357D01*
X3107842Y10178694D01*
X3117088Y10183418D01*
X3122218Y10169652D01*
X3125114Y10158933D01*
X3127908Y10143185D01*
X3120339Y10143185D01*
X3120339Y10150043D01*
X3120085Y10153192D01*
X3119374Y10156698D01*
X3118358Y10160050D01*
X3117088Y10162946D01*
X3113887Y10168991D01*
X3060649Y10150195D01*
X3057906Y10157612D01*
X3057296Y10160711D01*
X3020521Y10160711D01*
X3025902Y10141864D01*
X3029661Y10130332D01*
X3033674Y10119055D01*
X3038043Y10107930D01*
X3043742Y10094671D01*
X3086658Y10094671D01*
X3087573Y10101326D01*
X3089706Y10107472D01*
X3093110Y10112959D01*
X3097733Y10117683D01*
X3103524Y10121442D01*
X3112363Y10124948D01*
X3120796Y10126116D01*
X3129229Y10124897D01*
X3137865Y10121290D01*
X3147009Y10116312D01*
X3152089Y10106558D01*
X3155645Y10098379D01*
X3156864Y10091470D01*
X3155645Y10084562D01*
X3152038Y10076383D01*
X3147009Y10066578D01*
X3137154Y10061498D01*
X3130143Y10058501D01*
X3123336Y10056825D01*
X3116834Y10056418D01*
X3110687Y10057333D01*
X3105099Y10059416D01*
X3100019Y10062768D01*
X3095599Y10067340D01*
X3091942Y10073081D01*
X3088792Y10080396D01*
X3087065Y10087660D01*
X3086658Y10094671D01*
X3043742Y10094671D01*
X3047695Y10086086D01*
X3053080Y10075265D01*
X3058871Y10064394D01*
X3065018Y10053472D01*
X3071622Y10042448D01*
X3078683Y10031222D01*
X3094126Y10008006D01*
X3137052Y10008006D01*
X3137052Y10029698D01*
X3146247Y10039502D01*
X3151682Y10044633D01*
X3157067Y10048341D01*
X3162401Y10050627D01*
X3167938Y10051542D01*
X3173628Y10050983D01*
X3179673Y10049052D01*
X3186125Y10045750D01*
X3193084Y10040975D01*
X3197555Y10037267D01*
X3201822Y10033203D01*
X3205327Y10029291D01*
X3207613Y10025989D01*
X3211271Y10019131D01*
X3201974Y10009428D01*
X3195523Y10003739D01*
X3189732Y10000386D01*
X3185515Y9999675D01*
X3183890Y10002113D01*
X3184652Y10003739D01*
X3186582Y10006482D01*
X3192983Y10013848D01*
X3202025Y10023246D01*
X3184093Y10041128D01*
X3159607Y10041128D01*
X3147110Y10025735D01*
X3147110Y10002774D01*
X3155492Y9995052D01*
X3161030Y9989464D01*
X3163417Y9985756D01*
X3162706Y9983724D01*
X3158947Y9983114D01*
X3154019Y9983114D01*
X3137052Y10008006D01*
X3094126Y10008006D01*
X3111957Y9981488D01*
X3131848Y9960965D01*
X3180080Y9960965D01*
X3197910Y9965436D01*
X3205480Y9967671D01*
X3212947Y9970363D01*
X3219399Y9973259D01*
X3224072Y9976002D01*
X3227628Y9978898D01*
X3231032Y9982403D01*
X3233978Y9985959D01*
X3236061Y9989210D01*
X3239668Y9996322D01*
X3251453Y9987788D01*
X3231540Y9966553D01*
X3226866Y9922713D01*
X3218434Y9929672D01*
X3223006Y9959746D01*
X3219754Y9959746D01*
X3213658Y9958628D01*
X3203651Y9955936D01*
X3190798Y9952075D01*
X3180080Y9960965D01*
X3131848Y9960965D01*
X3152292Y9939832D01*
X3171545Y9920986D01*
X3180537Y9912807D01*
X3189376Y9905238D01*
X3198317Y9898024D01*
X3207562Y9891115D01*
X3217265Y9884308D01*
X3227730Y9877399D01*
X3239109Y9870236D01*
X3249879Y9863785D01*
X3261309Y9857587D01*
X3274567Y9850831D01*
X3288436Y9844074D01*
X3301898Y9837877D01*
X3313887Y9832644D01*
X3323183Y9828936D01*
X3328822Y9827260D01*
X3329889Y9827310D01*
X3330956Y9830612D01*
X3335324Y9850577D01*
X3341471Y9881158D01*
X3347618Y9913823D01*
X3352139Y9939985D01*
X3353308Y9947960D01*
X3355238Y9964775D01*
X3331057Y9994341D01*
X3322980Y10004806D01*
X3315919Y10014458D01*
X3310737Y10022179D01*
X3302965Y10036200D01*
X3310077Y10081260D01*
X3314852Y10108946D01*
X3320897Y10141508D01*
X3321100Y10196068D01*
X3333750Y10200081D01*
X3351276Y10192105D01*
X3358032Y10167112D01*
X3353155Y10121900D01*
X3352342Y10110673D01*
X3352088Y10102392D01*
X3352444Y10098176D01*
X3354527Y10095687D01*
X3358997Y10092080D01*
X3365195Y10087864D01*
X3380486Y10078415D01*
X3388614Y10072420D01*
X3396030Y10066274D01*
X3401618Y10060736D01*
X3412388Y10048494D01*
X3410102Y10006126D01*
X3409086Y9992664D01*
X3407968Y9981539D01*
X3406851Y9974173D01*
X3406343Y9972243D01*
X3404057Y9966452D01*
X3411169Y9966452D01*
X3415436Y9982047D01*
X3417011Y9990836D01*
X3418586Y10002062D01*
X3419856Y10014254D01*
X3422497Y10049154D01*
X3407562Y10073182D01*
X3361639Y10099903D01*
X3364128Y10198557D01*
X3375050Y10236555D01*
X3379012Y10249204D01*
X3382721Y10260177D01*
X3385769Y10268254D01*
X3391560Y10279888D01*
X3399180Y10279888D01*
X3402431Y10279583D01*
X3405733Y10278719D01*
X3408629Y10277449D01*
X3410813Y10275874D01*
X3414826Y10271861D01*
X3414674Y10259872D01*
X3413760Y10253624D01*
X3409746Y10233253D01*
X3403650Y10206329D01*
X3389122Y10146792D01*
X3408121Y10140188D01*
X3408121Y10143134D01*
X3407816Y10144455D01*
X3407003Y10145928D01*
X3405835Y10147300D01*
X3400602Y10150754D01*
X3402482Y10166146D01*
X3404260Y10176052D01*
X3407511Y10189870D01*
X3411728Y10206075D01*
X3416604Y10223195D01*
X3421634Y10239857D01*
X3426409Y10254538D01*
X3430524Y10265867D01*
X3432200Y10269829D01*
X3433521Y10272369D01*
X3438398Y10279888D01*
X3444798Y10279888D01*
X3447643Y10279481D01*
X3450793Y10278364D01*
X3453790Y10276738D01*
X3456279Y10274757D01*
X3461461Y10269626D01*
X3458362Y10253319D01*
X3454654Y10237825D01*
X3447440Y10211511D01*
X3444506Y10209834D01*
X3457448Y10209834D01*
X3460902Y10230002D01*
X3462477Y10236200D01*
X3464255Y10241838D01*
X3466033Y10246156D01*
X3467912Y10249458D01*
X3470097Y10252354D01*
X3472281Y10254538D01*
X3474212Y10255758D01*
X3478428Y10257078D01*
X3478428Y10209834D01*
X3444506Y10209834D01*
X3442817Y10208869D01*
X3440633Y10206990D01*
X3437991Y10203891D01*
X3435248Y10199928D01*
X3432759Y10195610D01*
X3427272Y10185044D01*
X3425741Y10166502D01*
X3434079Y10166502D01*
X3436213Y10177170D01*
X3437432Y10181894D01*
X3439210Y10186974D01*
X3441242Y10191699D01*
X3443376Y10195509D01*
X3448456Y10203180D01*
X3459226Y10203027D01*
X3464915Y10202621D01*
X3471011Y10201605D01*
X3477260Y10200030D01*
X3483406Y10197998D01*
X3489248Y10195610D01*
X3494633Y10192918D01*
X3499205Y10190022D01*
X3502812Y10187025D01*
X3509467Y10180421D01*
X3505098Y10169093D01*
X3491128Y10172039D01*
X3477971Y10174274D01*
X3455670Y10177373D01*
X3444646Y10169804D01*
X3441496Y10168077D01*
X3438855Y10166959D01*
X3437077Y10166502D01*
X3425741Y10166502D01*
X3424188Y10136327D01*
X3428847Y10136327D01*
X3429812Y10141458D01*
X3432098Y10146639D01*
X3435502Y10151770D01*
X3439972Y10156647D01*
X3445408Y10161066D01*
X3451758Y10164927D01*
X3458260Y10168128D01*
X3463544Y10169194D01*
X3471164Y10168128D01*
X3484575Y10164978D01*
X3491890Y10162895D01*
X3498646Y10160508D01*
X3504031Y10158018D01*
X3507333Y10155783D01*
X3512261Y10150856D01*
X3507740Y10132974D01*
X3458718Y10137394D01*
X3433876Y10122763D01*
X3431082Y10127132D01*
X3429254Y10131501D01*
X3428847Y10136327D01*
X3424188Y10136327D01*
X3423395Y10105948D01*
X3431540Y10105948D01*
X3451250Y10125557D01*
X3467354Y10128605D01*
X3472840Y10129215D01*
X3478225Y10129520D01*
X3483457Y10129469D01*
X3488486Y10129164D01*
X3493160Y10128504D01*
X3497427Y10127538D01*
X3501186Y10126319D01*
X3508959Y10123220D01*
X3506876Y10101478D01*
X3475786Y10103713D01*
X3465779Y10098532D01*
X3461156Y10095687D01*
X3456076Y10091775D01*
X3451047Y10087254D01*
X3446729Y10082682D01*
X3437686Y10071963D01*
X3434689Y10076738D01*
X3433521Y10079532D01*
X3432505Y10083698D01*
X3431844Y10088575D01*
X3431590Y10093706D01*
X3431540Y10105948D01*
X3423395Y10105948D01*
X3422954Y10084816D01*
X3427222Y10071455D01*
X3428847Y10064953D01*
X3430219Y10057130D01*
X3431184Y10049002D01*
X3431448Y10043414D01*
X3437432Y10043414D01*
X3448659Y10072725D01*
X3475075Y10096500D01*
X3497681Y10096500D01*
X3505708Y10086797D01*
X3503726Y10080802D01*
X3501898Y10077704D01*
X3498342Y10073741D01*
X3493617Y10069423D01*
X3488182Y10065258D01*
X3474618Y10055707D01*
X3471468Y10047528D01*
X3470249Y10043058D01*
X3469284Y10036911D01*
X3468624Y10029952D01*
X3468370Y10022890D01*
X3468370Y10006431D01*
X3463798Y10006431D01*
X3461359Y10006990D01*
X3458006Y10008463D01*
X3454247Y10010597D01*
X3450539Y10013238D01*
X3441852Y10020096D01*
X3437432Y10043414D01*
X3431448Y10043414D01*
X3431590Y10024770D01*
X3444494Y10003688D01*
X3468979Y9994900D01*
X3465334Y9927437D01*
X3473145Y9927437D01*
X3473856Y9953244D01*
X3475583Y9987584D01*
X3477717Y10020655D01*
X3478784Y10033711D01*
X3479749Y10042753D01*
X3481781Y10052761D01*
X3510991Y10073640D01*
X3519017Y10153599D01*
X3511296Y10162844D01*
X3515664Y10176510D01*
X3535273Y10176510D01*
X3535629Y10147808D01*
X3539540Y10009530D01*
X3539947Y9978136D01*
X3539642Y9945319D01*
X3537712Y9916414D01*
X3475431Y9916414D01*
X3473551Y9919462D01*
X3473297Y9920732D01*
X3473145Y9927437D01*
X3465334Y9927437D01*
X3464255Y9907168D01*
X3482797Y9910724D01*
X3480358Y9897973D01*
X3479292Y9887559D01*
X3477006Y9854742D01*
X3474059Y9799675D01*
X3482492Y9799675D01*
X3492957Y9800336D01*
X3506317Y9801809D01*
X3521760Y9803892D01*
X3523589Y9908082D01*
X3548684Y9910165D01*
X3548684Y9986416D01*
X3562248Y9986416D01*
X3568750Y9986721D01*
X3576370Y9987584D01*
X3584194Y9988804D01*
X3591255Y9990277D01*
X3606647Y9994188D01*
X3631488Y10018928D01*
X3635248Y9975900D01*
X3640074Y9928199D01*
X3644239Y9940036D01*
X3633419Y10063327D01*
X3632403Y10070795D01*
X3631946Y10072522D01*
X3631488Y10073284D01*
X3626510Y10073132D01*
X3619550Y10018826D01*
X3598875Y9998252D01*
X3549396Y9995763D01*
X3545738Y10085933D01*
X3544468Y10130485D01*
X3543655Y10174833D01*
X3561181Y10176865D01*
X3560419Y10118140D01*
X3569360Y10096957D01*
X3591509Y10086492D01*
X3628999Y10086492D01*
X3628999Y10093147D01*
X3618128Y10093147D01*
X3612946Y10093452D01*
X3606800Y10094163D01*
X3600500Y10095280D01*
X3594862Y10096601D01*
X3582466Y10100056D01*
X3568750Y10117378D01*
X3568750Y10175697D01*
X3588816Y10179659D01*
X3588816Y10186568D01*
X3523589Y10182504D01*
X3497478Y10200132D01*
X3492195Y10204246D01*
X3488537Y10207701D01*
X3486404Y10210698D01*
X3485743Y10213340D01*
X3486505Y10215676D01*
X3488639Y10217861D01*
X3492093Y10220045D01*
X3499154Y10223754D01*
X3617264Y10219182D01*
X3632962Y10209276D01*
X3648659Y10174833D01*
X3649440Y10170515D01*
X3886250Y10170515D01*
X3888841Y10177526D01*
X3890010Y10182199D01*
X3890416Y10182606D01*
X3891381Y10182352D01*
X3897376Y10178389D01*
X3901084Y10176510D01*
X3905402Y10174732D01*
X3909771Y10173258D01*
X3920134Y10170312D01*
X3922166Y10178389D01*
X3923233Y10181539D01*
X3924554Y10184130D01*
X3926027Y10185857D01*
X3927449Y10186517D01*
X3930700Y10186517D01*
X3926281Y10166502D01*
X3930751Y10166299D01*
X3936034Y10165232D01*
X3946245Y10162590D01*
X3948531Y10172852D01*
X3949649Y10176865D01*
X3951020Y10180167D01*
X3952494Y10182352D01*
X3953865Y10183164D01*
X3956050Y10182809D01*
X3956710Y10180624D01*
X3955745Y10175036D01*
X3949395Y10149484D01*
X3925163Y10157714D01*
X3886250Y10170515D01*
X3649440Y10170515D01*
X3656444Y10130536D01*
X3870401Y10130536D01*
X3873042Y10137190D01*
X3874008Y10138511D01*
X3875532Y10139121D01*
X3877970Y10138867D01*
X3881729Y10137648D01*
X3894886Y10132009D01*
X3915664Y10122611D01*
X3928567Y10116515D01*
X3931767Y10114635D01*
X3933291Y10113111D01*
X3933647Y10111689D01*
X3930091Y10102392D01*
X3925976Y10105491D01*
X3922318Y10107574D01*
X3906418Y10115092D01*
X3870401Y10130536D01*
X3656444Y10130536D01*
X3658920Y10113213D01*
X3661359Y10093248D01*
X3663169Y10076484D01*
X3842765Y10076484D01*
X3861562Y10109809D01*
X3865778Y10109809D01*
X3868928Y10109301D01*
X3869537Y10107320D01*
X3867404Y10103154D01*
X3854907Y10085933D01*
X3861562Y10080904D01*
X3871518Y10074351D01*
X3886047Y10065715D01*
X3903776Y10055606D01*
X3901186Y10048798D01*
X3900068Y10044836D01*
X3898087Y10045700D01*
X3884828Y10053828D01*
X3865168Y10066477D01*
X3856482Y10071658D01*
X3849928Y10075164D01*
X3846525Y10076484D01*
X3663169Y10076484D01*
X3665474Y10052862D01*
X3668975Y10011156D01*
X3789934Y10011156D01*
X3796741Y10019284D01*
X3813251Y10012476D01*
X3819804Y10010394D01*
X3820922Y10010394D01*
X3829354Y10020452D01*
X3837330Y10029444D01*
X3823563Y10052710D01*
X3832148Y10059822D01*
X3863238Y10000234D01*
X3860444Y9992817D01*
X3859580Y9991293D01*
X3858209Y9990531D01*
X3855669Y9990582D01*
X3851401Y9991496D01*
X3835654Y9996373D01*
X3789934Y10011156D01*
X3668975Y10011156D01*
X3673152Y9950653D01*
X3752799Y9950653D01*
X3752799Y9976205D01*
X3773576Y9999776D01*
X3787952Y9999726D01*
X3776827Y9990988D01*
X3772255Y9986975D01*
X3768090Y9982504D01*
X3764787Y9978186D01*
X3762756Y9974478D01*
X3759758Y9966655D01*
X3766921Y9946233D01*
X3776421Y9941306D01*
X3785412Y9937546D01*
X3792575Y9937038D01*
X3799332Y9939934D01*
X3811117Y9950348D01*
X3814826Y9953142D01*
X3817620Y9954717D01*
X3819194Y9954768D01*
X3819753Y9951161D01*
X3816604Y9946182D01*
X3810406Y9940696D01*
X3801872Y9935413D01*
X3789527Y9929012D01*
X3766515Y9933330D01*
X3752799Y9950653D01*
X3673152Y9950653D01*
X3680510Y9826345D01*
X3689807Y9829190D01*
X3696614Y9832086D01*
X3705606Y9836353D01*
X3728161Y9847935D01*
X3753408Y9861854D01*
X3777437Y9875875D01*
X3787698Y9882276D01*
X3821429Y9904526D01*
X3898646Y9981438D01*
X3924350Y10020350D01*
X3931412Y10031628D01*
X3938168Y10042956D01*
X3944620Y10054386D01*
X3950766Y10065918D01*
X3956608Y10077500D01*
X3962146Y10089235D01*
X3967378Y10101021D01*
X3972255Y10112908D01*
X3976878Y10124846D01*
X3981196Y10136936D01*
X3985158Y10149078D01*
X3988866Y10161320D01*
X3992270Y10173665D01*
X3996740Y10192308D01*
X4005224Y10234879D01*
X4005122Y10358272D01*
X3997960Y10397439D01*
X3995521Y10409580D01*
X3991457Y10427106D01*
X3988511Y10438485D01*
X3985310Y10449712D01*
X3978097Y10471759D01*
X3974084Y10482732D01*
X3965092Y10504881D01*
X3952494Y10534142D01*
X3899966Y10613237D01*
X3838600Y10677144D01*
X3802989Y10703763D01*
X3792220Y10711332D01*
X3781298Y10718647D01*
X3770172Y10725658D01*
X3758844Y10732414D01*
X3741572Y10741964D01*
X3729837Y10747908D01*
X3718001Y10753598D01*
X3705961Y10758982D01*
X3693820Y10764012D01*
X3681526Y10768736D01*
X3669131Y10773156D01*
X3656685Y10777270D01*
X3637737Y10782757D01*
X3625037Y10786059D01*
X3612286Y10788954D01*
X3599434Y10791545D01*
X3586530Y10793780D01*
X3573576Y10795711D01*
G37*
G36*
X3286404Y10710062D02*
G01*
X3270910Y10695533D01*
X3270910Y10674248D01*
X3284778Y10656722D01*
X3305556Y10656722D01*
X3317798Y10667746D01*
X3317798Y10693704D01*
X3301339Y10710062D01*
G37*
G36*
X3907942Y10523321D02*
G01*
X3899814Y10523270D01*
X3896309Y10523016D01*
X3892753Y10522407D01*
X3889552Y10521492D01*
X3887165Y10520375D01*
X3882644Y10517479D01*
X3888181Y10507319D01*
X3889552Y10505236D01*
X3890619Y10504017D01*
X3891127Y10503865D01*
X3899814Y10514126D01*
G37*
G36*
X3776472Y10283240D02*
G01*
X3769868Y10270896D01*
X3777081Y10263733D01*
X3785006Y10267340D01*
X3789832Y10270337D01*
X3792474Y10273842D01*
X3792829Y10277500D01*
X3790746Y10281005D01*
X3789426Y10281869D01*
X3787394Y10282580D01*
X3785006Y10283037D01*
X3782517Y10283240D01*
G37*
G36*
X3936542Y10262870D02*
G01*
X3930599Y10262768D01*
X3925112Y10261701D01*
X3920185Y10259618D01*
X3915918Y10256621D01*
X3912514Y10252760D01*
X3910025Y10247985D01*
X3906926Y10239857D01*
X3910533Y10231882D01*
X3912615Y10228326D01*
X3915257Y10225125D01*
X3918508Y10222280D01*
X3922217Y10219893D01*
X3926332Y10218013D01*
X3930853Y10216591D01*
X3935679Y10215727D01*
X3940708Y10215422D01*
X3951325Y10215422D01*
X3957472Y10222992D01*
X3960672Y10228021D01*
X3962603Y10233304D01*
X3963263Y10238740D01*
X3962654Y10244023D01*
X3960926Y10249001D01*
X3958082Y10253421D01*
X3954170Y10257129D01*
X3949192Y10259872D01*
X3942791Y10261904D01*
G37*
G36*
X3787597Y10259517D02*
G01*
X3784142Y10258704D01*
X3778097Y10256012D01*
X3772509Y10252557D01*
X3769969Y10248696D01*
X3770426Y10244582D01*
X3773932Y10240416D01*
X3778250Y10236809D01*
X3785412Y10238689D01*
X3788308Y10239806D01*
X3791000Y10241483D01*
X3793134Y10243515D01*
X3794455Y10245648D01*
X3796436Y10250728D01*
X3789883Y10258399D01*
G37*
G36*
X3085287Y10253878D02*
G01*
X3058464Y10250271D01*
X3052572Y10243058D01*
X3048304Y10236200D01*
X3047034Y10229646D01*
X3048812Y10222839D01*
X3053638Y10215321D01*
X3060598Y10206532D01*
X3087166Y10206532D01*
X3104235Y10223550D01*
X3102102Y10232542D01*
X3100679Y10236504D01*
X3098444Y10240721D01*
X3095650Y10244582D01*
X3092653Y10247731D01*
G37*
G36*
X3132023Y10116972D02*
G01*
X3108604Y10113365D01*
X3093567Y10096093D01*
X3093567Y10080294D01*
X3102356Y10073386D01*
X3109518Y10068814D01*
X3116326Y10066832D01*
X3123641Y10067391D01*
X3132124Y10070439D01*
X3140913Y10074452D01*
X3149650Y10091470D01*
X3146552Y10099802D01*
X3144926Y10103408D01*
X3142742Y10107015D01*
X3140252Y10110165D01*
X3137763Y10112552D01*
G37*
G36*
X3840429Y10019284D02*
G01*
X3837533Y10018877D01*
X3833825Y10015778D01*
X3830624Y10011867D01*
X3830421Y10008870D01*
X3833418Y10006279D01*
X3839819Y10003586D01*
X3846322Y10001504D01*
X3849166Y10001605D01*
X3848862Y10004653D01*
X3845966Y10011308D01*
X3843070Y10016845D01*
G37*
G36*
X3343960Y9555835D02*
G01*
X3344468Y9546336D01*
X3345992Y9535668D01*
X3352292Y9498787D01*
X3364179Y9433610D01*
X3420211Y9431832D01*
X3436010Y9520936D01*
X3441192Y9548164D01*
X3443274Y9555835D01*
G37*
G36*
X3957421Y9527743D02*
G01*
X3914495Y9525152D01*
X3875786Y9506051D01*
X3861104Y9489033D01*
X3854399Y9482531D01*
X3852722Y9481566D01*
X3851148Y9482429D01*
X3848455Y9484715D01*
X3841140Y9492386D01*
X3831640Y9503156D01*
X3784955Y9526270D01*
X3725621Y9526320D01*
X3692194Y9514789D01*
X3659987Y9483090D01*
X3652113Y9461500D01*
X3649319Y9452203D01*
X3646728Y9442196D01*
X3644646Y9432544D01*
X3640683Y9408820D01*
X3640632Y9184487D01*
X3717442Y9184487D01*
X3719982Y9411919D01*
X3723741Y9423704D01*
X3725926Y9429038D01*
X3729024Y9434931D01*
X3732682Y9440570D01*
X3736390Y9445345D01*
X3745229Y9455251D01*
X3793642Y9455251D01*
X3813200Y9441281D01*
X3819499Y9428175D01*
X3822192Y9421469D01*
X3824884Y9412986D01*
X3827272Y9403740D01*
X3828999Y9394901D01*
X3832199Y9374784D01*
X3832250Y9184487D01*
X3909161Y9184487D01*
X3911041Y9411919D01*
X3928008Y9446514D01*
X3948633Y9457639D01*
X3985615Y9454946D01*
X4004767Y9441281D01*
X4011168Y9428073D01*
X4013911Y9421622D01*
X4016654Y9413849D01*
X4018991Y9405721D01*
X4020718Y9398254D01*
X4023868Y9381693D01*
X4023868Y9184487D01*
X4101134Y9184487D01*
X4101134Y9518700D01*
X4023868Y9518700D01*
X4023868Y9490862D01*
X4021226Y9490862D01*
X4019753Y9491370D01*
X4017670Y9492742D01*
X4015232Y9494824D01*
X4008577Y9501530D01*
X4003598Y9505797D01*
X3998010Y9510014D01*
X3992016Y9513976D01*
X3985920Y9517583D01*
X3979926Y9520682D01*
X3974287Y9523120D01*
X3969207Y9524746D01*
G37*
G36*
X3062579Y9527438D02*
G01*
X3051505Y9527184D01*
X3040278Y9526270D01*
X3028746Y9524695D01*
X3008680Y9521494D01*
X2969818Y9503410D01*
X2933852Y9469069D01*
X2921965Y9445548D01*
X2917799Y9436049D01*
X2913888Y9426244D01*
X2910738Y9417253D01*
X2904998Y9396476D01*
X2904902Y9394901D01*
X2982417Y9394901D01*
X2982417Y9398101D01*
X2982823Y9401251D01*
X2983992Y9405112D01*
X2985820Y9409531D01*
X2988208Y9414306D01*
X2991053Y9419336D01*
X2994253Y9424314D01*
X2997708Y9429089D01*
X3001314Y9433509D01*
X3011728Y9445396D01*
X3036468Y9456674D01*
X3079750Y9456724D01*
X3095193Y9449460D01*
X3100374Y9446717D01*
X3105454Y9443415D01*
X3110433Y9439706D01*
X3115157Y9435642D01*
X3119678Y9431274D01*
X3123793Y9426702D01*
X3127502Y9422028D01*
X3130651Y9417405D01*
X3133293Y9412782D01*
X3135223Y9408363D01*
X3136493Y9404197D01*
X3136900Y9400336D01*
X3136950Y9394901D01*
X2904902Y9394901D01*
X2901137Y9333026D01*
X3143910Y9333026D01*
X3141929Y9319869D01*
X3140456Y9313418D01*
X3138017Y9305594D01*
X3134868Y9297416D01*
X3131413Y9289796D01*
X3122930Y9272879D01*
X3092450Y9249816D01*
X3062020Y9242501D01*
X3029559Y9245854D01*
X3004972Y9258401D01*
X2974289Y9292082D01*
X2914243Y9249054D01*
X2927502Y9232442D01*
X2935427Y9223908D01*
X2944063Y9215932D01*
X2953359Y9208516D01*
X2963418Y9201658D01*
X2974187Y9195358D01*
X3000502Y9182049D01*
X3045764Y9174429D01*
X3098292Y9177985D01*
X3122777Y9186621D01*
X3134207Y9191396D01*
X3144621Y9196730D01*
X3154273Y9202724D01*
X3163366Y9209582D01*
X3172206Y9217406D01*
X3191865Y9237218D01*
X3214522Y9280398D01*
X3223361Y9322206D01*
X3223463Y9379762D01*
X3213506Y9424314D01*
X3191205Y9467189D01*
X3158998Y9500209D01*
X3113735Y9521647D01*
X3090875Y9525355D01*
X3079343Y9526676D01*
X3068116Y9527336D01*
G37*
G36*
X3449574Y9524847D02*
G01*
X3444138Y9498025D01*
X3435502Y9449562D01*
X3450742Y9437878D01*
X3460089Y9429750D01*
X3470554Y9418878D01*
X3509264Y9454032D01*
X3522167Y9466478D01*
X3527704Y9473031D01*
X3506876Y9492284D01*
X3497986Y9499447D01*
X3488385Y9506458D01*
X3479241Y9512401D01*
X3475228Y9514738D01*
X3461156Y9521799D01*
X3456025Y9523984D01*
X3453180Y9524796D01*
G37*
G36*
X3329330Y9524238D02*
G01*
X3322015Y9521494D01*
X3309975Y9515348D01*
X3299358Y9508896D01*
X3287776Y9500616D01*
X3276447Y9491624D01*
X3271316Y9487204D01*
X3262934Y9479178D01*
X3259988Y9475825D01*
X3258108Y9473133D01*
X3257448Y9471253D01*
X3258515Y9469526D01*
X3265830Y9462160D01*
X3277768Y9451492D01*
X3291484Y9439910D01*
X3304082Y9429851D01*
X3309112Y9426092D01*
X3312820Y9423654D01*
X3314801Y9422739D01*
X3316579Y9423603D01*
X3319729Y9425838D01*
X3323844Y9429140D01*
X3333292Y9437370D01*
X3337864Y9440976D01*
X3341725Y9443669D01*
X3344265Y9445040D01*
X3348532Y9446463D01*
X3339236Y9502190D01*
X3335477Y9520986D01*
X3333394Y9523984D01*
G37*
G36*
X3537204Y9459163D02*
G01*
X3535273Y9459061D01*
X3532378Y9457588D01*
X3528263Y9454642D01*
X3522624Y9450019D01*
X3505809Y9435033D01*
X3478428Y9410141D01*
X3479800Y9403435D01*
X3483000Y9391192D01*
X3490569Y9364268D01*
X3486912Y9346895D01*
X3484981Y9339072D01*
X3482289Y9330537D01*
X3479292Y9322358D01*
X3476294Y9315551D01*
X3469284Y9301530D01*
X3458565Y9292082D01*
X3453028Y9287764D01*
X3445916Y9283039D01*
X3438144Y9278518D01*
X3430625Y9274708D01*
X3413506Y9266783D01*
X3369919Y9267037D01*
X3335731Y9282734D01*
X3312769Y9305696D01*
X3249930Y9260332D01*
X3242868Y9249816D01*
X3240125Y9245244D01*
X3237890Y9240672D01*
X3236366Y9236557D01*
X3235807Y9233458D01*
X3235807Y9227616D01*
X3246221Y9223654D01*
X3274415Y9233814D01*
X3282442Y9225788D01*
X3275736Y9195816D01*
X3284474Y9187027D01*
X3297834Y9194139D01*
X3301796Y9196628D01*
X3305251Y9199118D01*
X3307740Y9201251D01*
X3312261Y9205823D01*
X3325418Y9202369D01*
X3325418Y9192107D01*
X3325672Y9187434D01*
X3326333Y9182455D01*
X3327349Y9177629D01*
X3328517Y9173667D01*
X3331616Y9165539D01*
X3345484Y9167469D01*
X3360470Y9190685D01*
X3371951Y9190685D01*
X3374999Y9182201D01*
X3378911Y9172498D01*
X3382721Y9165031D01*
X3386328Y9159951D01*
X3389731Y9157411D01*
X3393897Y9155836D01*
X3398520Y9160408D01*
X3400602Y9163151D01*
X3402990Y9167215D01*
X3405276Y9172041D01*
X3407257Y9177070D01*
X3411372Y9189161D01*
X3424631Y9191142D01*
X3447948Y9164878D01*
X3457701Y9168587D01*
X3459835Y9181084D01*
X3460496Y9186164D01*
X3460699Y9190837D01*
X3460546Y9194546D01*
X3459937Y9196781D01*
X3457956Y9199930D01*
X3473450Y9206992D01*
X3492804Y9190685D01*
X3500120Y9190685D01*
X3506063Y9191498D01*
X3509111Y9194546D01*
X3509518Y9200794D01*
X3507689Y9211157D01*
X3504437Y9225788D01*
X3513124Y9234525D01*
X3542792Y9224467D01*
X3552596Y9234271D01*
X3536645Y9264192D01*
X3544570Y9275064D01*
X3553561Y9273286D01*
X3562146Y9272676D01*
X3570732Y9273794D01*
X3577640Y9276232D01*
X3581146Y9279585D01*
X3582314Y9283090D01*
X3560318Y9307474D01*
X3560318Y9319971D01*
X3573779Y9322003D01*
X3579469Y9323120D01*
X3585057Y9324695D01*
X3589782Y9326473D01*
X3593134Y9328353D01*
X3598926Y9332671D01*
X3595674Y9338259D01*
X3593388Y9340951D01*
X3589578Y9344050D01*
X3584803Y9347200D01*
X3579571Y9350044D01*
X3566718Y9356242D01*
X3566464Y9370060D01*
X3576523Y9374327D01*
X3580892Y9376511D01*
X3585413Y9379356D01*
X3589528Y9382455D01*
X3592728Y9385503D01*
X3598875Y9392361D01*
X3592779Y9396831D01*
X3589528Y9398711D01*
X3585057Y9400489D01*
X3580028Y9402064D01*
X3574948Y9403130D01*
X3563162Y9405010D01*
X3556914Y9416694D01*
X3579317Y9437878D01*
X3577285Y9452152D01*
X3540658Y9452305D01*
X3539439Y9456115D01*
X3538524Y9458096D01*
G37*
D10*
X6887446Y10910455D02*
G01*
X6997700Y10621037D01*
X6887446Y10910455D02*
G01*
X6777192Y10621037D01*
X6956353Y10717509D02*
G01*
X6818536Y10717509D01*
X6686232Y10910455D02*
G01*
X6686232Y10621037D01*
X6595272Y10910455D02*
G01*
X6595272Y10621037D01*
X6595272Y10910455D02*
G01*
X6498798Y10910455D01*
X6457454Y10896673D01*
X6429890Y10869109D01*
X6416108Y10841548D01*
X6402326Y10800201D01*
X6402326Y10731291D01*
X6416108Y10689948D01*
X6429890Y10662384D01*
X6457454Y10634819D01*
X6498798Y10621037D01*
X6595272Y10621037D01*
X6311366Y10910455D02*
G01*
X6311366Y10621037D01*
X6311366Y10910455D02*
G01*
X6132202Y10910455D01*
X6311366Y10772637D02*
G01*
X6201112Y10772637D01*
X6311366Y10621037D02*
G01*
X6132202Y10621037D01*
X6041242Y10910455D02*
G01*
X6041242Y10621037D01*
X6041242Y10910455D02*
G01*
X5848299Y10621037D01*
X5848299Y10910455D02*
G01*
X5848299Y10621037D01*
X5352153Y10869109D02*
G01*
X5379717Y10896673D01*
X5421063Y10910455D01*
X5476189Y10910455D01*
X5517535Y10896673D01*
X5545099Y10869109D01*
X5545099Y10841548D01*
X5531317Y10813983D01*
X5517535Y10800201D01*
X5489971Y10786419D01*
X5407281Y10758855D01*
X5379717Y10745073D01*
X5365935Y10731291D01*
X5352153Y10703727D01*
X5352153Y10662384D01*
X5379717Y10634819D01*
X5421063Y10621037D01*
X5476189Y10621037D01*
X5517535Y10634819D01*
X5545099Y10662384D01*
X5261193Y10910455D02*
G01*
X5192285Y10621037D01*
X5123375Y10910455D02*
G01*
X5192285Y10621037D01*
X5123375Y10910455D02*
G01*
X5054467Y10621037D01*
X4985557Y10910455D02*
G01*
X5054467Y10621037D01*
X4784343Y10910455D02*
G01*
X4894597Y10621037D01*
X4784343Y10910455D02*
G01*
X4674090Y10621037D01*
X4853254Y10717509D02*
G01*
X4715436Y10717509D01*
X4583130Y10910455D02*
G01*
X4583130Y10621037D01*
X4583130Y10910455D02*
G01*
X4390184Y10621037D01*
X4390184Y10910455D02*
G01*
X4390184Y10621037D01*
X4299224Y10910455D02*
G01*
X4299224Y10621037D01*
X4299224Y10910455D02*
G01*
X4106280Y10621037D01*
X4106280Y10910455D02*
G01*
X4106280Y10621037D01*
D11*
X6928708Y10472602D02*
G01*
X6928708Y10406928D01*
X6928708Y10458528D02*
G01*
X6938091Y10467911D01*
X6947474Y10472602D01*
X6961545Y10472602D01*
X6970928Y10467911D01*
X6980308Y10458528D01*
X6985000Y10444457D01*
X6985000Y10435074D01*
X6980308Y10421002D01*
X6970928Y10411620D01*
X6961545Y10406928D01*
X6947474Y10406928D01*
X6938091Y10411620D01*
X6928708Y10421002D01*
X6897748Y10505437D02*
G01*
X6893059Y10500746D01*
X6888368Y10505437D01*
X6893059Y10510128D01*
X6897748Y10505437D01*
X6893059Y10472602D02*
G01*
X6893059Y10406928D01*
X6801116Y10505437D02*
G01*
X6801116Y10406928D01*
X6801116Y10458528D02*
G01*
X6810499Y10467911D01*
X6819879Y10472602D01*
X6833953Y10472602D01*
X6843334Y10467911D01*
X6852716Y10458528D01*
X6857408Y10444457D01*
X6857408Y10435074D01*
X6852716Y10421002D01*
X6843334Y10411620D01*
X6833953Y10406928D01*
X6819879Y10406928D01*
X6810499Y10411620D01*
X6801116Y10421002D01*
X6770156Y10444457D02*
G01*
X6713865Y10444457D01*
X6713865Y10453837D01*
X6718556Y10463220D01*
X6723247Y10467911D01*
X6732630Y10472602D01*
X6746702Y10472602D01*
X6756085Y10467911D01*
X6765465Y10458528D01*
X6770156Y10444457D01*
X6770156Y10435074D01*
X6765465Y10421002D01*
X6756085Y10411620D01*
X6746702Y10406928D01*
X6732630Y10406928D01*
X6723247Y10411620D01*
X6713865Y10421002D01*
X6682905Y10472602D02*
G01*
X6682905Y10406928D01*
X6682905Y10453837D02*
G01*
X6668833Y10467911D01*
X6659450Y10472602D01*
X6645379Y10472602D01*
X6635996Y10467911D01*
X6631304Y10453837D01*
X6631304Y10406928D01*
X6548747Y10458528D02*
G01*
X6553436Y10467911D01*
X6567510Y10472602D01*
X6581581Y10472602D01*
X6595656Y10467911D01*
X6600347Y10458528D01*
X6595656Y10449145D01*
X6586273Y10444457D01*
X6562818Y10439765D01*
X6553436Y10435074D01*
X6548747Y10425691D01*
X6548747Y10421002D01*
X6553436Y10411620D01*
X6567510Y10406928D01*
X6581581Y10406928D01*
X6595656Y10411620D01*
X6600347Y10421002D01*
X6517787Y10472602D02*
G01*
X6499021Y10406928D01*
X6480258Y10472602D02*
G01*
X6499021Y10406928D01*
X6480258Y10472602D02*
G01*
X6461495Y10406928D01*
X6442732Y10472602D02*
G01*
X6461495Y10406928D01*
X6355481Y10472602D02*
G01*
X6355481Y10406928D01*
X6355481Y10458528D02*
G01*
X6364864Y10467911D01*
X6374244Y10472602D01*
X6388318Y10472602D01*
X6397698Y10467911D01*
X6407081Y10458528D01*
X6411772Y10444457D01*
X6411772Y10435074D01*
X6407081Y10421002D01*
X6397698Y10411620D01*
X6388318Y10406928D01*
X6374244Y10406928D01*
X6364864Y10411620D01*
X6355481Y10421002D01*
X6324521Y10472602D02*
G01*
X6324521Y10406928D01*
X6324521Y10453837D02*
G01*
X6310449Y10467911D01*
X6301066Y10472602D01*
X6286995Y10472602D01*
X6277612Y10467911D01*
X6272921Y10453837D01*
X6272921Y10406928D01*
X6241961Y10472602D02*
G01*
X6241961Y10406928D01*
X6241961Y10453837D02*
G01*
X6227889Y10467911D01*
X6218506Y10472602D01*
X6204435Y10472602D01*
X6195052Y10467911D01*
X6190361Y10453837D01*
X6190361Y10406928D01*
X6154709Y10430383D02*
G01*
X6159400Y10425691D01*
X6154709Y10421002D01*
X6150020Y10425691D01*
X6154709Y10430383D01*
X6062769Y10458528D02*
G01*
X6072151Y10467911D01*
X6081532Y10472602D01*
X6095606Y10472602D01*
X6104986Y10467911D01*
X6114369Y10458528D01*
X6119060Y10444457D01*
X6119060Y10435074D01*
X6114369Y10421002D01*
X6104986Y10411620D01*
X6095606Y10406928D01*
X6081532Y10406928D01*
X6072151Y10411620D01*
X6062769Y10421002D01*
X6008354Y10472602D02*
G01*
X6017737Y10467911D01*
X6027117Y10458528D01*
X6031809Y10444457D01*
X6031809Y10435074D01*
X6027117Y10421002D01*
X6017737Y10411620D01*
X6008354Y10406928D01*
X5994283Y10406928D01*
X5984900Y10411620D01*
X5975517Y10421002D01*
X5970826Y10435074D01*
X5970826Y10444457D01*
X5975517Y10458528D01*
X5984900Y10467911D01*
X5994283Y10472602D01*
X6008354Y10472602D01*
X5939868Y10472602D02*
G01*
X5939868Y10406928D01*
X5939868Y10453837D02*
G01*
X5925794Y10467911D01*
X5916411Y10472602D01*
X5902340Y10472602D01*
X5892957Y10467911D01*
X5888268Y10453837D01*
X5888268Y10406928D01*
X5888268Y10453837D02*
G01*
X5874194Y10467911D01*
X5864814Y10472602D01*
X5850740Y10472602D01*
X5841359Y10467911D01*
X5836668Y10453837D01*
X5836668Y10406928D01*
X6928708Y10338965D02*
G01*
X6933400Y10348346D01*
X6947474Y10353037D01*
X6956854Y10353037D01*
X6970928Y10348346D01*
X6980308Y10334274D01*
X6985000Y10310819D01*
X6985000Y10287365D01*
X6980308Y10268602D01*
X6970928Y10259219D01*
X6956854Y10254528D01*
X6952162Y10254528D01*
X6938091Y10259219D01*
X6928708Y10268602D01*
X6924017Y10282674D01*
X6924017Y10287365D01*
X6928708Y10301437D01*
X6938091Y10310819D01*
X6952162Y10315511D01*
X6956854Y10315511D01*
X6970928Y10310819D01*
X6980308Y10301437D01*
X6985000Y10287365D01*
X6893059Y10334274D02*
G01*
X6883676Y10338965D01*
X6869602Y10353037D01*
X6869602Y10254528D01*
X6833953Y10329583D02*
G01*
X6833953Y10334274D01*
X6829262Y10343657D01*
X6824571Y10348346D01*
X6815188Y10353037D01*
X6796425Y10353037D01*
X6787045Y10348346D01*
X6782353Y10343657D01*
X6777662Y10334274D01*
X6777662Y10324891D01*
X6782353Y10315511D01*
X6791733Y10301437D01*
X6838642Y10254528D01*
X6772970Y10254528D01*
X6742010Y10296745D02*
G01*
X6657576Y10296745D01*
X6603161Y10353037D02*
G01*
X6617233Y10348346D01*
X6621924Y10338965D01*
X6621924Y10329583D01*
X6617233Y10320202D01*
X6607850Y10315511D01*
X6589087Y10310819D01*
X6575016Y10306128D01*
X6565633Y10296745D01*
X6560941Y10287365D01*
X6560941Y10273291D01*
X6565633Y10263911D01*
X6570324Y10259219D01*
X6584396Y10254528D01*
X6603161Y10254528D01*
X6617233Y10259219D01*
X6621924Y10263911D01*
X6626616Y10273291D01*
X6626616Y10287365D01*
X6621924Y10296745D01*
X6612542Y10306128D01*
X6598470Y10310819D01*
X6579707Y10315511D01*
X6570324Y10320202D01*
X6565633Y10329583D01*
X6565633Y10338965D01*
X6570324Y10348346D01*
X6584396Y10353037D01*
X6603161Y10353037D01*
X6520601Y10353037D02*
G01*
X6469001Y10353037D01*
X6497147Y10315511D01*
X6483073Y10315511D01*
X6473692Y10310819D01*
X6469001Y10306128D01*
X6464310Y10292057D01*
X6464310Y10282674D01*
X6469001Y10268602D01*
X6478381Y10259219D01*
X6492455Y10254528D01*
X6506527Y10254528D01*
X6520601Y10259219D01*
X6525293Y10263911D01*
X6529981Y10273291D01*
X6386441Y10353037D02*
G01*
X6433350Y10287365D01*
X6362987Y10287365D01*
X6386441Y10353037D02*
G01*
X6386441Y10254528D01*
X6332026Y10296745D02*
G01*
X6247589Y10296745D01*
X6169720Y10353037D02*
G01*
X6216629Y10287365D01*
X6146266Y10287365D01*
X6169720Y10353037D02*
G01*
X6169720Y10254528D01*
X6068397Y10353037D02*
G01*
X6115306Y10287365D01*
X6044943Y10287365D01*
X6068397Y10353037D02*
G01*
X6068397Y10254528D01*
X5985837Y10353037D02*
G01*
X5999911Y10348346D01*
X6009292Y10334274D01*
X6013983Y10310819D01*
X6013983Y10296745D01*
X6009292Y10273291D01*
X5999911Y10259219D01*
X5985837Y10254528D01*
X5976457Y10254528D01*
X5962383Y10259219D01*
X5953003Y10273291D01*
X5948311Y10296745D01*
X5948311Y10310819D01*
X5953003Y10334274D01*
X5962383Y10348346D01*
X5976457Y10353037D01*
X5985837Y10353037D01*
X5856368Y10320202D02*
G01*
X5861060Y10306128D01*
X5870442Y10296745D01*
X5884514Y10292057D01*
X5889205Y10292057D01*
X5903277Y10296745D01*
X5912660Y10306128D01*
X5917351Y10320202D01*
X5917351Y10324891D01*
X5912660Y10338965D01*
X5903277Y10348346D01*
X5889205Y10353037D01*
X5884514Y10353037D01*
X5870442Y10348346D01*
X5861060Y10338965D01*
X5856368Y10320202D01*
X5856368Y10296745D01*
X5861060Y10273291D01*
X5870442Y10259219D01*
X5884514Y10254528D01*
X5893897Y10254528D01*
X5907968Y10259219D01*
X5912660Y10268602D01*
X6933400Y10179128D02*
G01*
X6938091Y10188511D01*
X6952162Y10193202D01*
X6966237Y10193202D01*
X6980308Y10188511D01*
X6985000Y10179128D01*
X6980308Y10169745D01*
X6970928Y10165057D01*
X6947474Y10160365D01*
X6938091Y10155674D01*
X6933400Y10146291D01*
X6933400Y10141602D01*
X6938091Y10132219D01*
X6952162Y10127528D01*
X6966237Y10127528D01*
X6980308Y10132219D01*
X6985000Y10141602D01*
X6902440Y10193202D02*
G01*
X6883676Y10127528D01*
X6864913Y10193202D02*
G01*
X6883676Y10127528D01*
X6864913Y10193202D02*
G01*
X6846148Y10127528D01*
X6827385Y10193202D02*
G01*
X6846148Y10127528D01*
X6740133Y10193202D02*
G01*
X6740133Y10127528D01*
X6740133Y10179128D02*
G01*
X6749516Y10188511D01*
X6758899Y10193202D01*
X6772970Y10193202D01*
X6782353Y10188511D01*
X6791733Y10179128D01*
X6796425Y10165057D01*
X6796425Y10155674D01*
X6791733Y10141602D01*
X6782353Y10132219D01*
X6772970Y10127528D01*
X6758899Y10127528D01*
X6749516Y10132219D01*
X6740133Y10141602D01*
X6709176Y10193202D02*
G01*
X6709176Y10127528D01*
X6709176Y10174437D02*
G01*
X6695102Y10188511D01*
X6685720Y10193202D01*
X6671647Y10193202D01*
X6662265Y10188511D01*
X6657576Y10174437D01*
X6657576Y10127528D01*
X6626616Y10193202D02*
G01*
X6626616Y10127528D01*
X6626616Y10174437D02*
G01*
X6612542Y10188511D01*
X6603160Y10193202D01*
X6589087Y10193202D01*
X6579707Y10188511D01*
X6575016Y10174437D01*
X6575016Y10127528D01*
X6487764Y10193202D02*
G01*
X6487764Y10127528D01*
X6487764Y10179128D02*
G01*
X6497147Y10188511D01*
X6506527Y10193202D01*
X6520600Y10193202D01*
X6529981Y10188511D01*
X6539364Y10179128D01*
X6544056Y10165057D01*
X6544056Y10155674D01*
X6539364Y10141602D01*
X6529981Y10132219D01*
X6520600Y10127528D01*
X6506527Y10127528D01*
X6497147Y10132219D01*
X6487764Y10141602D01*
X6456804Y10226037D02*
G01*
X6452113Y10221346D01*
X6447421Y10226037D01*
X6452113Y10230728D01*
X6456804Y10226037D01*
X6452113Y10193202D02*
G01*
X6452113Y10127528D01*
X6360172Y10226037D02*
G01*
X6360172Y10127528D01*
X6360172Y10179128D02*
G01*
X6369552Y10188511D01*
X6378935Y10193202D01*
X6393007Y10193202D01*
X6402390Y10188511D01*
X6411772Y10179128D01*
X6416464Y10165057D01*
X6416464Y10155674D01*
X6411772Y10141602D01*
X6402390Y10132219D01*
X6393007Y10127528D01*
X6378935Y10127528D01*
X6369552Y10132219D01*
X6360172Y10141602D01*
X6329212Y10165057D02*
G01*
X6272921Y10165057D01*
X6272921Y10174437D01*
X6277612Y10183819D01*
X6282303Y10188511D01*
X6291684Y10193202D01*
X6305758Y10193202D01*
X6315138Y10188511D01*
X6324521Y10179128D01*
X6329212Y10165057D01*
X6329212Y10155674D01*
X6324521Y10141602D01*
X6315138Y10132219D01*
X6305758Y10127528D01*
X6291684Y10127528D01*
X6282303Y10132219D01*
X6272921Y10141602D01*
X6241961Y10193202D02*
G01*
X6241961Y10127528D01*
X6241961Y10174437D02*
G01*
X6227889Y10188511D01*
X6218506Y10193202D01*
X6204435Y10193202D01*
X6195052Y10188511D01*
X6190361Y10174437D01*
X6190361Y10127528D01*
X6089037Y10188511D02*
G01*
X6093729Y10197891D01*
X6103111Y10202583D01*
X6117183Y10202583D01*
X6126566Y10197891D01*
X6131255Y10193202D01*
X6135946Y10179128D01*
X6135946Y10165057D01*
X6131255Y10155674D01*
X6121874Y10150983D01*
X6107800Y10150983D01*
X6098420Y10155674D01*
X6093729Y10165057D01*
X6117183Y10202583D02*
G01*
X6126566Y10193202D01*
X6131255Y10179128D01*
X6131255Y10165057D01*
X6126566Y10155674D01*
X6121874Y10150983D01*
X6089037Y10202583D02*
G01*
X6093729Y10165057D01*
X6093729Y10155674D01*
X6084346Y10150983D01*
X6074966Y10150983D01*
X6065583Y10160365D01*
X6060892Y10174437D01*
X6060892Y10183819D01*
X6065583Y10197891D01*
X6070274Y10207274D01*
X6079655Y10216657D01*
X6089037Y10221346D01*
X6103111Y10226037D01*
X6117183Y10226037D01*
X6131255Y10221346D01*
X6140637Y10216657D01*
X6150020Y10207274D01*
X6154709Y10197891D01*
X6159400Y10183819D01*
X6159400Y10169745D01*
X6154709Y10155674D01*
X6150020Y10146291D01*
X6140637Y10136911D01*
X6131255Y10132219D01*
X6117183Y10127528D01*
X6103111Y10127528D01*
X6089037Y10132219D01*
X6079655Y10136911D01*
X6074966Y10141602D01*
X6084346Y10202583D02*
G01*
X6089037Y10165057D01*
X6089037Y10155674D01*
X6084346Y10150983D01*
X5973643Y10193202D02*
G01*
X5973643Y10118148D01*
X5978331Y10104074D01*
X5983023Y10099382D01*
X5992406Y10094691D01*
X6006477Y10094691D01*
X6015860Y10099382D01*
X5973643Y10179128D02*
G01*
X5983023Y10188511D01*
X5992406Y10193202D01*
X6006477Y10193202D01*
X6015860Y10188511D01*
X6025240Y10179128D01*
X6029932Y10165057D01*
X6029932Y10155674D01*
X6025240Y10141602D01*
X6015860Y10132219D01*
X6006477Y10127528D01*
X5992406Y10127528D01*
X5983023Y10132219D01*
X5973643Y10141602D01*
X5942683Y10193202D02*
G01*
X5942683Y10127528D01*
X5942683Y10174437D02*
G01*
X5928608Y10188511D01*
X5919228Y10193202D01*
X5905154Y10193202D01*
X5895774Y10188511D01*
X5891082Y10174437D01*
X5891082Y10127528D01*
X5891082Y10174437D02*
G01*
X5877008Y10188511D01*
X5867628Y10193202D01*
X5853554Y10193202D01*
X5844174Y10188511D01*
X5839482Y10174437D01*
X5839482Y10127528D01*
X5752231Y10193202D02*
G01*
X5752231Y10127528D01*
X5752231Y10179128D02*
G01*
X5761614Y10188511D01*
X5770994Y10193202D01*
X5785068Y10193202D01*
X5794448Y10188511D01*
X5803831Y10179128D01*
X5808522Y10165057D01*
X5808522Y10155674D01*
X5803831Y10141602D01*
X5794448Y10132219D01*
X5785068Y10127528D01*
X5770994Y10127528D01*
X5761614Y10132219D01*
X5752231Y10141602D01*
X5721271Y10226037D02*
G01*
X5716579Y10221346D01*
X5711891Y10226037D01*
X5716579Y10230728D01*
X5721271Y10226037D01*
X5716579Y10193202D02*
G01*
X5716579Y10127528D01*
X5680930Y10226037D02*
G01*
X5680930Y10127528D01*
X5645279Y10150983D02*
G01*
X5649970Y10146291D01*
X5645279Y10141602D01*
X5640588Y10146291D01*
X5645279Y10150983D01*
X5553336Y10179128D02*
G01*
X5562719Y10188511D01*
X5572102Y10193202D01*
X5586173Y10193202D01*
X5595556Y10188511D01*
X5604936Y10179128D01*
X5609628Y10165057D01*
X5609628Y10155674D01*
X5604936Y10141602D01*
X5595556Y10132219D01*
X5586173Y10127528D01*
X5572102Y10127528D01*
X5562719Y10132219D01*
X5553336Y10141602D01*
X5498922Y10193202D02*
G01*
X5508304Y10188511D01*
X5517687Y10179128D01*
X5522376Y10165057D01*
X5522376Y10155674D01*
X5517687Y10141602D01*
X5508304Y10132219D01*
X5498922Y10127528D01*
X5484850Y10127528D01*
X5475467Y10132219D01*
X5466087Y10141602D01*
X5461396Y10155674D01*
X5461396Y10165057D01*
X5466087Y10179128D01*
X5475467Y10188511D01*
X5484850Y10193202D01*
X5498922Y10193202D01*
X5430436Y10193202D02*
G01*
X5430436Y10127528D01*
X5430436Y10174437D02*
G01*
X5416362Y10188511D01*
X5406981Y10193202D01*
X5392907Y10193202D01*
X5383527Y10188511D01*
X5378836Y10174437D01*
X5378836Y10127528D01*
X5378836Y10174437D02*
G01*
X5364764Y10188511D01*
X5355381Y10193202D01*
X5341307Y10193202D01*
X5331927Y10188511D01*
X5327235Y10174437D01*
X5327235Y10127528D01*
M02*
